<svg width="132" height="29" viewBox="0 0 132 29" fill="none" xmlns="http://www.w3.org/2000/svg">
<path d="M-9.7543e-05 0.600096H11.1599C13.9599 0.600096 16.2266 1.09343 17.9599 2.0801C19.6932 3.0401 20.9732 4.5601 21.7999 6.6401C22.6266 8.7201 23.0399 11.4534 23.0399 14.8401C23.0399 18.0934 22.6266 20.7201 21.7999 22.7201C20.9999 24.7201 19.7332 26.2001 17.9999 27.1601C16.2666 28.1201 13.9866 28.6001 11.1599 28.6001H-9.7543e-05V0.600096ZM10.7599 25.3601C12.7599 25.3601 14.3332 25.0268 15.4799 24.3601C16.6532 23.6668 17.4932 22.5601 17.9999 21.0401C18.5066 19.5201 18.7599 17.4534 18.7599 14.8401C18.7599 12.1468 18.5066 10.0134 17.9999 8.4401C17.5199 6.8401 16.6932 5.6801 15.5199 4.9601C14.3732 4.21343 12.7866 3.8401 10.7599 3.8401H4.2799V25.3601H10.7599ZM26.2499 11.8001C26.2499 8.1201 27.2899 5.25343 29.3699 3.2001C31.4499 1.1201 34.3432 0.0800953 38.0499 0.0800953C41.7032 0.0800953 44.5432 1.1201 46.5699 3.2001C48.6232 5.25343 49.6499 8.1201 49.6499 11.8001V28.6001H45.3699V21.1201H30.5299V28.6001H26.2499V11.8001ZM45.3699 17.7201V11.8001C45.3699 9.37343 44.7166 7.4801 43.4099 6.1201C42.1299 4.73343 40.3432 4.0401 38.0499 4.0401C35.6766 4.0401 33.8232 4.73343 32.4899 6.1201C31.1832 7.4801 30.5299 9.37343 30.5299 11.8001V17.7201H45.3699ZM52.8515 11.7201C52.8515 8.0401 53.8915 5.17343 55.9715 3.1201C58.0515 1.0401 60.9448 9.63211e-05 64.6515 9.63211e-05C68.3315 9.63211e-05 71.2115 1.0401 73.2915 3.1201C75.3715 5.17343 76.4115 8.0401 76.4115 11.7201V28.6001H72.1315V11.7201C72.1315 9.29343 71.4648 7.4001 70.1315 6.0401C68.8248 4.65343 66.9981 3.9601 64.6515 3.9601C62.3048 3.9601 60.4648 4.65343 59.1315 6.0401C57.7981 7.4001 57.1315 9.29343 57.1315 11.7201V28.6001H52.8515V11.7201ZM83.8893 0.600096V28.6001H79.6093V0.600096H83.8893ZM107.43 0.600096V3.8401H91.3502V12.9601H106.35V16.2001H91.3502V25.3601H107.55V28.6001H87.0702V0.600096H107.43ZM110.742 0.600096H114.982V25.3601H131.182V28.6001H110.742V0.600096Z" fill="white"/>
</svg>
