<svg width="1920" height="428" viewBox="0 0 1920 428" fill="none" xmlns="http://www.w3.org/2000/svg">
  <defs>
    <radialGradient id="daniel-spot" gradientUnits="userSpaceOnUse" cx="-300" cy="214" r="420" fx="-300" fy="214">
      <stop offset="0"    stop-color="#F5E4C0" stop-opacity="0.95"/>
      <stop offset="0.35" stop-color="#F0D9B4" stop-opacity="0.55"/>
      <stop offset="0.7"  stop-color="#FFFFFF" stop-opacity="0.2"/>
      <stop offset="1"    stop-color="#FFFFFF" stop-opacity="0.13"/>
      <animate attributeName="cx" values="-300;2220" dur="9s" repeatCount="indefinite"/>
      <animate attributeName="fx" values="-300;2220" dur="9s" repeatCount="indefinite"/>
    </radialGradient>
  </defs>
  <path d="M-145 7.79978H44C86.8 7.79978 124.2 16.3998 156.2 33.5998C188.6 50.7998 213.6 75.5998 231.2 108C249.2 140.4 258.2 178.8 258.2 223.2C258.2 265.6 249.6 302.2 232.4 333C215.6 363.8 191 387.4 158.6 403.8C126.6 419.8 88.4 427.8 44 427.8H-145V7.79978ZM27.8 328.8C55.8 328.8 77.6 319.6 93.2 301.2C108.8 282.4 116.6 256.4 116.6 223.2C116.6 186.8 108.8 158.4 93.2 138C77.6 117.2 55.8 106.8 27.8 106.8H-3.39999V328.8H27.8ZM306.172 209.4C306.172 165.8 314.372 128.4 330.772 97.1998C347.572 65.5998 371.572 41.5998 402.772 25.1998C433.972 8.39978 471.172 -0.000230789 514.372 -0.000230789C557.572 -0.000230789 594.772 8.39978 625.972 25.1998C657.172 41.5998 680.972 65.5998 697.372 97.1998C714.172 128.4 722.572 165.8 722.572 209.4V427.8H580.972V360.6H447.772V427.8H306.172V209.4ZM580.972 255V209.4C580.972 183.8 574.972 163.8 562.972 149.4C551.372 135 535.172 127.8 514.372 127.8C493.572 127.8 477.172 135 465.172 149.4C453.572 163.8 447.772 183.8 447.772 209.4V255H580.972ZM770.82 209.4C770.82 165.8 779.02 128.4 795.42 97.1998C812.22 65.5998 836.22 41.5998 867.42 25.1998C898.62 8.39978 935.82 -0.000230789 979.02 -0.000230789C1022.22 -0.000230789 1059.42 8.39978 1090.62 25.1998C1121.82 41.5998 1145.62 65.5998 1162.02 97.1998C1178.82 128.4 1187.22 165.8 1187.22 209.4V427.8H1045.62V209.4C1045.62 183.8 1039.62 163.8 1027.62 149.4C1016.02 135 999.82 127.8 979.02 127.8C958.22 127.8 941.82 135 929.82 149.4C918.22 163.8 912.42 183.8 912.42 209.4V427.8H770.82V209.4ZM1377.07 7.79978V427.8H1235.47V7.79978H1377.07ZM1803.91 7.79978V107.4H1566.91V168H1791.91V267.6H1566.91V328.2H1809.91V427.8H1425.31V7.79978H1803.91ZM1857.73 7.79978H1996.93V328.2H2239.93V427.8H1857.73V7.79978Z" fill="url(#daniel-spot)"/>
</svg>
